<svg xmlns="http://www.w3.org/2000/svg" width="250" height="250" fill="none" viewBox="0 0 250 250">
  <path d="m18.01 74.21v101.2c0 5.81 2.45 10.77 6.38 14.27l91.42 51.98c7.1 3.71 13.7 2.63 19-0.74l87.06-50.51c6.65-4 10.13-9.23 10.13-16.5v-99.7c0-7.6-3.82-13.6-9.82-16.52l-87.43-48.99c-6.74-4.43-15.64-2.99-19.64-0.39l-86.8 49.67c-6.1 3.33-10.3 9.33-10.3 16.23z" fill="url(#paint0_linear_2316_10785)"/>
  <path d="m18.01 120.9v54.5c0 5.64 2.3 10.6 6.1 14.1l0.4-0.3c8.1-6.2 17.2-7.2 24.2-8 12.5-1.5 19.9-0.8 32.4-4.3l-11-56.1-52.1 0.1z" fill="url(#paint1_linear_2316_10785)"/>
  <path d="m232 125.2-22.2-2.9c-11.7 2.9-35.1 5.4-47.6 8.4-6 1.5-8.9 3.5-6.6 7.3 1.6 2.9 11.1 2.9 11.1 6.2 0 3-6.5 4.7-14.5 5.8l1 2.7c7 1.3 21.5-3.5 21.5-7.5 0-4.7-11-4.5-11-8.5s5.5-4.7 14-6c11-1.8 31.5-4.3 38.5-7.5l15.8 3.4v-1.4z" fill="#FEFFFE"/>
  <path d="m232 126.2-16.5-4.2c-7.9 3.2-30.3 5.6-41.3 7.5-7 1.2-12 2.1-12 6.2 0 4 10.5 3.5 10.5 8 0 4-11 7.5-21.5 8l1 2c5.5 1.5 18.5 4.5 27.5 16.5 8 4 23 13 23.5 22 0.5 7-15 7.5-24.5 7.5-30 0-76-6.5-107.5-20.5-10-0.5-27 1-32 3-4.3 1.1-8.5 2.9-11.5 7.5l87 51c7.5 4.5 14.5 3 20-0.5l86.5-50.5c6.5-4 10.5-9 10.5-17l0.3-46.5z" fill="url(#paint2_linear_2316_10785)"/>
  <path d="m37.71 151.3c0-3.5 5.5-2.5 8-3-1-2-0.5-4.5 2.5-4.5h16c6 0 10 3 11 7s-4 6-3 12c0.5 3 6.5 5 13 8 10.5 5 22.5 9 31 10.5 4 0.7 5 2 0 2.5-9 1-27-2.5-37.5-6-11.5-4-38.5-17.5-41-26.5z" fill="#F0B14A" stroke="#1D3541" stroke-miterlimit="10" stroke-width="1.5"/>
  <path d="m44.21 148.3 26 6c1 1.5 2 3 4 4l-1 1c0 2 1 4 3.5 5l33 15.5c1.5 0.7 3 0.5 4.5 0.2l65.5-11.5c2-0.4 2.5-0.9 2.5-2.9v-0.5c0-1-0.5-1.5-2-2l-38-16.5-9.5-48c-0.5-1.5-2-2-3.5-2l-64.5 8c-2.5 0.5-4 2-3.5 4.5l6.5 34.5h-19.5c-3 0.2-4.5 2.2-4 4.7z" fill="#405172" stroke="#1D3541" stroke-miterlimit="10" stroke-width="1.5"/>
  <path d="m67.21 106.1 61.5-8.5 9.5 48-63.5 11-7.5-50.5z" fill="#9694C4" stroke="#1D3541" stroke-miterlimit="10" stroke-width="1.5"/>
  <path d="m69.71 108.1 57.5-7 8 42.5-58.5 9-7-44.5z" fill="#B6B2D8" stroke="#1D3541" stroke-miterlimit="10" stroke-width="1.5"/>
  <path d="m74.71 113.1 50.5-7.5 1 5-36.5 5 4.5 29.5-14.5 2.5-5-34.5z" fill="#344858"/>
  <path d="m76.21 114.1 5.5-1" stroke="#F05662" stroke-linecap="round" stroke-miterlimit="10" stroke-width="1.5"/>
  <path d="m80.71 113.6 2-0.5" stroke="#F4C869" stroke-linecap="round" stroke-miterlimit="10" stroke-width="1.5"/>
  <path d="m82.21 113.1 1-0.5" stroke="#4FB889" stroke-linecap="round" stroke-miterlimit="10" stroke-width="1.5"/>
  <path d="m91.71 116.1 8.5-1" stroke="#71C3B5" stroke-linecap="round" stroke-miterlimit="10" stroke-width="1.5"/>
  <path d="m94.21 118.6 9-1" stroke="#737373" stroke-linecap="round" stroke-miterlimit="10" stroke-width="1.5"/>
  <path d="m97.21 121.1 3.5-0.5" stroke="#737373" stroke-linecap="round" stroke-miterlimit="10" stroke-width="1.5"/>
  <path d="m102.2 120.6 4.5-0.5" stroke="#737373" stroke-linecap="round" stroke-miterlimit="10" stroke-width="1.5"/>
  <path d="m100.2 123.6 4-0.5" stroke="#737373" stroke-linecap="round" stroke-miterlimit="10" stroke-width="1.5"/>
  <path d="m105.2 123.1 12.5-1.5" stroke="#737373" stroke-linecap="round" stroke-miterlimit="10" stroke-width="1.5"/>
  <path d="m113.7 123.1 8.5-1" stroke="#749962" stroke-linecap="round" stroke-miterlimit="10" stroke-width="1.5"/>
  <path d="m102.2 126.1 16-2.5" stroke="#737373" stroke-linecap="round" stroke-miterlimit="10" stroke-width="1.5"/>
  <path d="m80.71 117.1 6-0.5" stroke="#737373" stroke-linecap="round" stroke-miterlimit="10" stroke-width="1.5"/>
  <path d="m81.21 120.1 7-1" stroke="#737373" stroke-linecap="round" stroke-miterlimit="10" stroke-width="1.5"/>
  <path d="m81.71 123.1 7.5-1" stroke="#737373" stroke-linecap="round" stroke-miterlimit="10" stroke-width="1.5"/>
  <path d="m82.21 126.1 7.5-1" stroke="#737373" stroke-linecap="round" stroke-miterlimit="10" stroke-width="1.5"/>
  <path d="m83.21 132.1 5.5-1" stroke="#737373" stroke-linecap="round" stroke-miterlimit="10" stroke-width="1.5"/>
  <path d="m95.21 131.6 5-1" stroke="#737373" stroke-linecap="round" stroke-miterlimit="10" stroke-width="1.5"/>
  <path d="m101.2 133.6 7-1" stroke="#749962" stroke-linecap="round" stroke-miterlimit="10" stroke-width="1.5"/>
  <path d="m109.2 135.1 7-1" stroke="#46897B" stroke-linecap="round" stroke-miterlimit="10" stroke-width="1.5"/>
  <path d="m101.7 139.6 6-1" stroke="#F4C869" stroke-linecap="round" stroke-miterlimit="10" stroke-width="1.5"/>
  <path d="m139.7 148.6-65.5 10 35 17c1.5 0.7 3 1 4.5 0.7l67-11c1-0.2 1.5-2.2 0-2.7l-38-14c-1-0.3-2-0.3-3 0z" fill="#E8E8F7" stroke="#1D3541" stroke-miterlimit="10" stroke-width="1.5"/>
  <path d="m83.71 160.1 57-10.5 18 8.5-55.5 9.5c-1.5 0.2-2.5 0-3.5-0.5l-16-7z" fill="#4C5175" stroke="#1D3541" stroke-miterlimit="10" stroke-width="1.5"/>
  <path d="m124.2 166.1 20.5-3 9 3.5-21.5 4-8-4.5z" fill="#7A86A0" stroke="#1D3541" stroke-miterlimit="10" stroke-width="1.5"/>
  <path d="m38.71 151.3c1 7.5 31.5 22 46 27.5 23 9 50.5 16.5 91.5 17.5 11 0.3 21.5-1.5 26.5-3.5-2-9.5-16.5-18-27.5-22.5l-60 11c-3 1-5 0-7-1l-33-15c-2-1-3-2.5-3-4.5l1-1c-2-0.5-3-1.5-4.5-3.5l-23.5-8c-2 0-7-0.5-6.5 3z" fill="#FAD564" stroke="#1D3541" stroke-miterlimit="10" stroke-width="1.5"/>
  <path d="m72.71 177.8 128.5 14" stroke="#1D3541" stroke-miterlimit="10" stroke-width="1.5"/>
  <path d="m232 113c-30.9-4-50.9-16-64.9-39.5l-3-0.5-0.5 3c10.5 23 29 39 68.4 49.5v-12.5z" fill="#B28A5B" stroke="#1D3541" stroke-miterlimit="10" stroke-width="1.5"/>
  <path d="m176.7 93.51 2-1.5" stroke="#1D3541" stroke-linecap="round" stroke-miterlimit="10" stroke-width="1.5"/>
  <path d="m195.2 109.5 2-2.5" stroke="#1D3541" stroke-linecap="round" stroke-miterlimit="10" stroke-width="1.5"/>
  <path d="m209.2 116.5 0.5-1" stroke="#1D3541" stroke-linecap="round" stroke-miterlimit="10" stroke-width="1.5"/>
  <path d="m222.7 118 1-3.5" stroke="#1D3541" stroke-linecap="round" stroke-miterlimit="10" stroke-width="1.5"/>
  <path d="m160.6 61.01c-4.5-13 1.5-37.5 23.5-38.5l6.5-0.5-8.5 8-5.5 1.5 2.5 1.5-7 6.5-4.5 2 3 2c-7 5-10.5 13.5-10 17.5z" fill="#76B763" stroke="#1D3541" stroke-linecap="round" stroke-linejoin="round" stroke-miterlimit="10" stroke-width="1.5"/>
  <path d="m161.6 59.01c4-10.5 14.5-18 24.5-17 10-1 18 4 24.5 10.5l-10.5-0.5-8-4.5 3 5.5-13-2 0.5 3c-7.5 0-15 2.5-21 5z" fill="#499951" stroke="#1D3541" stroke-linecap="round" stroke-linejoin="round" stroke-miterlimit="10" stroke-width="1.5"/>
  <path d="m161.1 61.51c-3-9.5-14-19.5-26.5-19-9.5 0-15.5 5-21 10l9.5-0.5 7.5-4.5-2 6 8.5-0.5 5.5-2-1.5 4.5c7.5-0.5 14 2 20 6z" fill="#76B763" stroke="#1D3541" stroke-linecap="round" stroke-linejoin="round" stroke-miterlimit="10" stroke-width="1.5"/>
  <path d="m161.1 61.51c-1.5-4.5-14-3.5-24-1-13 4-18.5 16.5-18 28l9-10.5 1.5-5 1 6.5 7-6 4-6 0.5 4c5-5 11-8.5 19-10z" fill="#499951" stroke="#1D3541" stroke-linecap="round" stroke-linejoin="round" stroke-miterlimit="10" stroke-width="1.5"/>
  <path d="m161.1 61.51c-8 1.5-17.5 8.5-18.5 21.5-1 9 4.5 17.5 10.5 23.5l-0.5-9.5-4-9 4.5 2.5 0.5-8.5-2-2.5 3.5-2.5c1.5 1 4.5 1.5 5.5-2l1.5-7.5-1-6z" fill="#76B763" stroke="#1D3541" stroke-linecap="round" stroke-linejoin="round" stroke-miterlimit="10" stroke-width="1.5"/>
  <path d="m161.1 61.51c3-2.5 13-3 19.5-1.5 11 3 17 12.5 17.5 20l0.5 7.5-9-9-1-5.5-1.5 4.5-6-5.5-0.5-4-3.5 2c-3-3-8-7.5-16-8.5z" fill="#76B763" stroke="#1D3541" stroke-linecap="round" stroke-linejoin="round" stroke-miterlimit="10" stroke-width="1.5"/>
  <path d="m162.1 63.01 10.5 3.5c2 1 1 3.5-1.5 5-3.5 2.5-7.5 1.5-9-1.5-1.5-2.5-2-6.5 0-7z" fill="#825E3B" stroke="#1D3541" stroke-linecap="round" stroke-linejoin="round" stroke-miterlimit="10" stroke-width="1.5"/>
  <path d="m46.11 77.81 8.5-7.8c1.5-1.5 4-1.5 5.5-1.2l6 1c1.5 0.2 2.5-0.5 3.5-1.8l2.5-3.5c1.5-2 3.5-2.5 5.5-2.5l11 1c1 0 1 0.8-0.5 1.3l-9.5 2-6 5.5 2 1.5c-1.5 2.5-6 3.5-12.5 3l0.5-2-2-1.5-5.5-0.5-8.5 5.5c-1 0.5-1 0.5-0.5 0z" fill="#FEFFFE" stroke="#1D3541" stroke-linecap="round" stroke-linejoin="round" stroke-miterlimit="10" stroke-width="1.05"/>
  <defs>
    <linearGradient id="paint0_linear_2316_10785" x1="123.7" x2="123.7" y1="5.229" y2="188.7" gradientUnits="userSpaceOnUse">
      <stop stop-color="#62B4DB" offset="0"/>
      <stop stop-color="#D6B0E6" offset="1"/>
    </linearGradient>
    <linearGradient id="paint1_linear_2316_10785" x1="49.62" x2="49.62" y1="119.2" y2="189.5" gradientUnits="userSpaceOnUse">
      <stop stop-color="#6299C6" offset="0"/>
      <stop stop-color="#399CC5" offset="1"/>
    </linearGradient>
    <linearGradient id="paint2_linear_2316_10785" x1="131.6" x2="147.6" y1="120.8" y2="217.8" gradientUnits="userSpaceOnUse">
      <stop stop-color="#FCE79D" offset="0"/>
      <stop stop-color="#C3A1DD" offset="1"/>
    </linearGradient>
  </defs>
</svg>